<?xml version="1.0" encoding="UTF-8"?>
<svg version="1.1" xmlns="http://www.w3.org/2000/svg" width="512" height="512">
<path d="M0 0 C147.84 0 295.68 0 448 0 C448.0825 41.0025 448.165 82.005 448.25 124.25 C448.28641602 137.19250977 448.32283203 150.13501953 448.36035156 163.46972656 C448.37841797 179.28466797 448.37841797 179.28466797 448.3817749 186.69036865 C448.38549867 191.85823355 448.40014424 197.02597264 448.42230225 202.19378662 C448.45055045 208.79179643 448.45795385 215.38961494 448.4522891 221.98769712 C448.45347315 224.40534027 448.46137059 226.82299199 448.47686052 229.2405858 C448.59235488 248.14932399 447.05777244 261.33911673 433.6875 275.75 C422.32136861 286.50723149 409.87771863 288.45496849 394.75564575 288.38768005 C393.22113782 288.39185836 391.68663298 288.39733859 390.15213382 288.40399987 C385.95644706 288.4184081 381.76095751 288.41422428 377.56526017 288.40683305 C373.03208481 288.4020922 368.49895155 288.41461935 363.96578979 288.42485046 C355.09305246 288.4420259 346.22038599 288.44288107 337.34763636 288.43763756 C330.13401137 288.43359225 322.92040729 288.43504371 315.70678329 288.44038582 C314.16536108 288.44150845 314.16536108 288.44150845 312.59279903 288.44265376 C310.50503914 288.44418528 308.41727926 288.44572363 306.32951938 288.44726873 C286.7612242 288.46098926 267.19296904 288.45555925 247.62467478 288.44408352 C229.73403229 288.43415189 211.84349323 288.44709141 193.95286669 288.47101771 C175.56943966 288.49541727 157.1860608 288.50501445 138.80261791 288.49836498 C128.48704513 288.49487464 118.17155188 288.49709266 107.85599136 288.51461601 C99.07452226 288.52934869 90.2931887 288.52995948 81.51172222 288.5125451 C77.03424205 288.50404149 72.5570039 288.5018699 68.07953644 288.51719666 C63.97491132 288.53107282 59.87073491 288.52624327 55.76613556 288.50695742 C54.28709341 288.50320605 52.80801507 288.50609436 51.32900526 288.51656907 C35.4285539 288.6211073 23.93029027 284.52435574 12.25 273.6875 C2.99085309 263.90425044 -0.48329284 252.5344883 -0.36076355 239.30648804 C-0.3633316 238.27951813 -0.36589966 237.25254822 -0.36854553 236.19445801 C-0.37348182 232.76798516 -0.35698889 229.34195949 -0.34057617 225.91552734 C-0.33965654 223.41123277 -0.34005872 220.90693742 -0.34167194 218.4026432 C-0.34227932 212.38869587 -0.32946593 206.37491951 -0.31016796 200.36101494 C-0.28849883 193.39862426 -0.28617994 186.43630054 -0.28381348 179.47387695 C-0.26808671 161.10756331 -0.22620311 142.7412796 -0.1875 124.375 C-0.125625 83.33125 -0.06375 42.2875 0 0 Z M232.875 66.625 C216.14293224 84.02957852 207.72377422 106.91546319 208 131 C209.42010967 156.0455706 220.28591484 177.25233528 238.375 194.3125 C255.6857876 208.91751618 278.31414207 217.25060296 301.03125 215.78515625 C321.2309374 214.05707706 339.8769045 206.65788209 355 193 C355.74507812 192.34773437 356.49015625 191.69546875 357.2578125 191.0234375 C373.96624121 175.47935922 382.89079074 153.27773182 384.125 130.71484375 C384.71198937 108.15243981 376.63847771 86.1227085 361.4375 69.5 C344.71240536 51.90689049 324.06001459 41.39067251 299.5703125 40.00390625 C273.96102258 39.97588733 251.58679389 49.02421888 232.875 66.625 Z M117 53 C112.52752375 58.68125361 111.88282771 63.22605148 111.83886719 70.29980469 C111.82925964 71.55170593 111.8196521 72.80360718 111.80975342 74.09344482 C111.8049041 75.45291968 111.8006256 76.81239667 111.796875 78.171875 C111.79404762 78.86214027 111.79122025 79.55240555 111.78830719 80.26358795 C111.77335015 83.91791665 111.76409924 87.57220624 111.75976562 91.2265625 C111.75429217 94.97993028 111.73027834 98.73293326 111.70179367 102.48618698 C111.68306375 105.39118456 111.67795618 108.29609616 111.67642975 111.20114899 C111.673425 112.58369181 111.66547109 113.96623392 111.65224457 115.34871674 C111.23535963 127.76932847 111.23535963 127.76932847 116.4520874 138.61053467 C121.18023859 142.68998746 124.40076618 143.35593387 130.4609375 143.27734375 C134.22460402 142.86623556 136.21790187 141.5171364 139 139 C143.47247625 133.31874639 144.11717229 128.77394852 144.16113281 121.70019531 C144.17074036 120.44829407 144.1803479 119.19639282 144.19024658 117.90655518 C144.1950959 116.54708032 144.1993744 115.18760333 144.203125 113.828125 C144.20595238 113.13785973 144.20877975 112.44759445 144.21169281 111.73641205 C144.22664985 108.08208335 144.23590076 104.42779376 144.24023438 100.7734375 C144.24570783 97.02006972 144.26972166 93.26706674 144.29820633 89.51381302 C144.31693625 86.60881544 144.32204382 83.70390384 144.32357025 80.79885101 C144.326575 79.41630819 144.33452891 78.03376608 144.34775543 76.65128326 C144.76464037 64.23067153 144.76464037 64.23067153 139.5479126 53.38946533 C134.81976141 49.31001254 131.59923382 48.64406613 125.5390625 48.72265625 C121.77539598 49.13376444 119.78209813 50.4828636 117 53 Z M69 85 C63.06085325 92.54432154 63.7844529 100.37102133 63.75976562 109.5546875 C63.75009092 111.72956042 63.71904525 113.90347459 63.6875 116.078125 C63.31366777 128.14061777 63.31366777 128.14061777 68.45239258 138.60449219 C73.17189037 142.69496214 76.40303979 143.35590438 82.4609375 143.27734375 C86.22460402 142.86623556 88.21790187 141.5171364 91 139 C96.93914675 131.45567846 96.2155471 123.62897867 96.24023438 114.4453125 C96.24990908 112.27043958 96.28095475 110.09652541 96.3125 107.921875 C96.68633223 95.85938223 96.68633223 95.85938223 91.54760742 85.39550781 C86.82810963 81.30503786 83.59696021 80.64409562 77.5390625 80.72265625 C73.77539598 81.13376444 71.78209813 82.4828636 69 85 Z M165 85 C159.06085325 92.54432154 159.7844529 100.37102133 159.75976562 109.5546875 C159.75009092 111.72956042 159.71904525 113.90347459 159.6875 116.078125 C159.31366777 128.14061777 159.31366777 128.14061777 164.45239258 138.60449219 C169.17189037 142.69496214 172.40303979 143.35590438 178.4609375 143.27734375 C182.22460402 142.86623556 184.21790187 141.5171364 187 139 C192.93914675 131.45567846 192.2155471 123.62897867 192.24023438 114.4453125 C192.24990908 112.27043958 192.28095475 110.09652541 192.3125 107.921875 C192.68633223 95.85938223 192.68633223 95.85938223 187.54760742 85.39550781 C182.82810963 81.30503786 179.59696021 80.64409562 173.5390625 80.72265625 C169.77539598 81.13376444 167.78209813 82.4828636 165 85 Z M68 182.0625 C64.5728418 187.0961386 64.3423134 190.97892552 65 197 C67.34792658 201.8764629 70.28760854 204.40337614 75 207 C79.68064169 208.31823367 84.41454572 208.15490425 89.23730469 208.16113281 C90.15992096 208.16609772 91.08253723 208.17106262 92.03311157 208.17617798 C95.0793737 208.19075884 98.12558374 208.19759505 101.171875 208.203125 C103.29551189 208.20888009 105.41914877 208.21463777 107.54278564 208.22039795 C111.99467205 208.23089654 116.44654046 208.23674659 120.8984375 208.24023438 C126.58884373 208.2457147 132.27901016 208.26973786 137.96934128 208.29820633 C142.35667606 208.31687711 146.74395362 208.32204069 151.13132477 208.32357025 C153.22837891 208.3265876 155.32543226 208.33458494 157.4224472 208.34775543 C160.36352008 208.3649077 163.30401389 208.3629132 166.24511719 208.35644531 C167.53130447 208.37026749 167.53130447 208.37026749 168.84347534 208.3843689 C174.95541413 208.34249645 181.87418732 207.78465451 186.62986374 203.54802322 C190.67472651 198.79349944 191.35601944 195.60583256 191.27734375 189.5390625 C190.86623556 185.77539598 189.5171364 183.78209813 187 181 C180.46969253 175.85911965 174.72455674 175.84914988 166.76269531 175.83886719 C165.84007904 175.83390228 164.91746277 175.82893738 163.96688843 175.82382202 C160.9206263 175.80924116 157.87441626 175.80240495 154.828125 175.796875 C152.70448811 175.79111991 150.58085123 175.78536223 148.45721436 175.77960205 C144.00532795 175.76910346 139.55345954 175.76325341 135.1015625 175.75976562 C129.41115627 175.7542853 123.72098984 175.73026214 118.03065872 175.70179367 C113.64332394 175.68312289 109.25604638 175.67795931 104.86867523 175.67642975 C102.77162109 175.6734124 100.67456774 175.66541506 98.5775528 175.65224457 C95.63647992 175.6350923 92.69598611 175.6370868 89.75488281 175.64355469 C88.89742462 175.6343399 88.03996643 175.62512512 87.15652466 175.6156311 C80.15134141 175.6636231 72.77189363 176.45338963 68 182.0625 Z " fill="#D85500" transform="translate(32,192)"/>
<path d="M0 0 C1.53450793 -0.00417831 3.06901277 -0.00965854 4.60351193 -0.01631981 C8.79919869 -0.03072805 12.99468824 -0.02654422 17.19038558 -0.019153 C21.72356094 -0.01441214 26.2566942 -0.02693929 30.78985596 -0.03717041 C39.66259329 -0.05434584 48.53525976 -0.05520101 57.4080094 -0.04995751 C64.62163438 -0.04591219 71.83523847 -0.04736366 79.04886246 -0.05270576 C80.59028467 -0.0538284 80.59028467 -0.0538284 82.16284672 -0.05497371 C84.25060661 -0.05650523 86.3383665 -0.05804357 88.42612638 -0.05958868 C107.99442155 -0.07330921 127.56267671 -0.06787919 147.13097097 -0.05640347 C165.02161346 -0.04647183 182.91215252 -0.05941136 200.80277906 -0.08333766 C219.18620609 -0.10773721 237.56958495 -0.1173344 255.95302784 -0.11068493 C266.26860062 -0.10719459 276.58409387 -0.10941261 286.89965439 -0.12693596 C295.68112349 -0.14166863 304.46245705 -0.14227942 313.24392353 -0.12486505 C317.72140371 -0.11636144 322.19864185 -0.11418984 326.67610931 -0.1295166 C330.78073443 -0.14339277 334.88491084 -0.13856322 338.98951019 -0.11927737 C340.46855234 -0.11552599 341.94763068 -0.11841431 343.4266405 -0.12888902 C359.32709185 -0.23342725 370.82535548 3.86332431 382.50564575 14.70018005 C409.3170785 43.02924107 394.75564575 101.23987023 394.75564575 128.38768005 C246.91564575 128.38768005 99.07564575 128.38768005 -53.24435425 128.38768005 C-53.24435425 28.06412463 -53.24435425 28.06412463 -38.93185425 12.63768005 C-27.56572286 1.88044856 -15.12207287 -0.06728843 0 0 Z M272.15115356 68.84007263 C268.06068361 73.55957042 267.39974137 76.79071984 267.478302 82.84861755 C267.88941019 86.61228408 269.23850935 88.60558193 271.75564575 91.38768005 C279.2999673 97.3268268 287.12666708 96.60322715 296.31033325 96.62791443 C298.48520617 96.63758913 300.65912034 96.66863481 302.83377075 96.70018005 C314.89626352 97.07401229 314.89626352 97.07401229 325.36013794 91.93528748 C329.4506079 87.21578969 330.11155014 83.98464026 330.0329895 77.92674255 C329.62188131 74.16307603 328.27278215 72.16977818 325.75564575 69.38768005 C318.21132421 63.44853331 310.38462442 64.17213295 301.20095825 64.14744568 C299.02608534 64.13777098 296.85217117 64.1067253 294.67752075 64.07518005 C282.61502798 63.70134782 282.61502798 63.70134782 272.15115356 68.84007263 Z M13.38064575 72.01268005 C11.17656682 76.59038245 10.95848185 80.39320416 11.75564575 85.38768005 C14.08533506 90.22626554 16.91706027 93.05799075 21.75564575 95.38768005 C26.75012164 96.18484396 30.55294336 95.96675898 35.13064575 93.76268005 C38.71472288 90.5199436 41.35099816 87.92292109 42.13845825 82.98924255 C42.39448494 77.30545011 41.69191507 73.73829351 37.75564575 69.38768005 C33.4050323 65.45141074 29.83787569 64.74884087 24.15408325 65.00486755 C19.22040472 65.79232765 16.6233822 68.42860292 13.38064575 72.01268005 Z M61.38064575 72.01268005 C59.17656682 76.59038245 58.95848185 80.39320416 59.75564575 85.38768005 C62.08533506 90.22626554 64.91706027 93.05799075 69.75564575 95.38768005 C74.75012164 96.18484396 78.55294336 95.96675898 83.13064575 93.76268005 C86.71472288 90.5199436 89.35099816 87.92292109 90.13845825 82.98924255 C90.39448494 77.30545011 89.69191507 73.73829351 85.75564575 69.38768005 C81.4050323 65.45141074 77.83787569 64.74884087 72.15408325 65.00486755 C67.22040472 65.79232765 64.6233822 68.42860292 61.38064575 72.01268005 Z M109.38064575 72.01268005 C107.17656682 76.59038245 106.95848185 80.39320416 107.75564575 85.38768005 C110.08533506 90.22626554 112.91706027 93.05799075 117.75564575 95.38768005 C122.75012164 96.18484396 126.55294336 95.96675898 131.13064575 93.76268005 C134.71472288 90.5199436 137.35099816 87.92292109 138.13845825 82.98924255 C138.39448494 77.30545011 137.69191507 73.73829351 133.75564575 69.38768005 C129.4050323 65.45141074 125.83787569 64.74884087 120.15408325 65.00486755 C115.22040472 65.79232765 112.6233822 68.42860292 109.38064575 72.01268005 Z " fill="#EB8B00" transform="translate(85.24435424804688,31.612319946289063)"/>
<path d="M0 0 C0.25521564 6.91854308 0.42934763 13.83585851 0.54931641 20.75805664 C0.59936262 23.10845286 0.66742523 25.45854156 0.75439453 27.80786133 C1.54975821 49.85814959 1.54975821 49.85814959 -4.81640625 56.8515625 C-6.50921762 58.27707157 -8.2345557 59.66549902 -10 61 C-11.22078357 62.32423981 -12.4160825 63.67338138 -13.5625 65.0625 C-16.94791138 68.9613387 -20.41251505 72.78569595 -23.88671875 76.60546875 C-26.00872492 79.00988609 -28.01720988 81.48011097 -30 84 C-33 83 -33 83 -34.31640625 80.7421875 C-34.72761719 79.79601562 -35.13882812 78.84984375 -35.5625 77.875 C-35.97628906 76.94429688 -36.39007813 76.01359375 -36.81640625 75.0546875 C-41.66920145 62.53031176 -42.45678991 46.17094069 -37.24609375 33.5859375 C-36.83488281 32.73257813 -36.42367188 31.87921875 -36 31 C-35.39865234 29.62714844 -35.39865234 29.62714844 -34.78515625 28.2265625 C-28.43565288 15.08585119 -17.71789881 7.25854494 -5 1 C-2 0 -2 0 0 0 Z " fill="#DE6500" transform="translate(312,266)"/>
<path d="M0 0 C2.26680841 0.05523665 4.53374602 0.10541626 6.80078125 0.15039062 C12.32836101 0.27100634 17.85107573 0.45451483 23.375 0.6875 C20.63201754 8.69086449 17.73110564 15.08877785 12.375 21.6875 C11.75109375 22.4609375 11.1271875 23.234375 10.484375 24.03125 C2.73786877 32.66476076 -10.33324033 39.85284855 -22.02490234 40.90307617 C-24.77062432 41.02829735 -27.50145401 41.06627483 -30.25 41.0625 C-31.70237061 41.06443359 -31.70237061 41.06443359 -33.18408203 41.06640625 C-40.93250173 40.95259204 -47.44152492 39.72353475 -54.625 36.6875 C-54.625 33.23335495 -54.30468243 32.98087695 -52.02734375 30.61328125 C-51.47667236 30.03231689 -50.92600098 29.45135254 -50.35864258 28.8527832 C-49.76591553 28.24136475 -49.17318848 27.62994629 -48.5625 27 C-47.35596207 25.72993449 -46.15022539 24.45910729 -44.9453125 23.1875 C-44.36555664 22.5790625 -43.78580078 21.970625 -43.18847656 21.34375 C-41.38849873 19.43696523 -39.65004421 17.4855585 -37.9375 15.5 C-37.43323486 14.94973145 -36.92896973 14.39946289 -36.40942383 13.83251953 C-34.52149844 11.67565518 -34.52149844 11.67565518 -32.97973633 8.93310547 C-24.82723553 -2.92024693 -13.02335813 -0.55122824 0 0 Z " fill="#DE6600" transform="translate(359.625,335.3125)"/>
<path d="M0 0 C16.59949549 5.53316516 27.16535839 14.55886974 35.46875 29.765625 C37 33 37 33 38 38 C25.46 38 12.92 38 0 38 C0 25.46 0 12.92 0 0 Z " fill="#E47700" transform="translate(344,266)"/>
</svg>
