<svg width="62" height="36" viewBox="0 0 62 36" fill="none" xmlns="http://www.w3.org/2000/svg">
<path d="M21.9433 0.222656C18.3332 0.222656 14.8709 1.65679 12.3181 4.20957L3.98692 12.5408C1.43413 15.0935 0 18.5558 0 22.166C0 29.6839 6.09439 35.7782 13.6122 35.7782C17.2224 35.7782 20.6847 34.344 23.2375 31.7912L29.0002 26.0285C29.0002 26.0284 29.0003 26.0286 29.0002 26.0285L45.7908 9.23789C47.01 8.0187 48.6636 7.33377 50.3878 7.33377C53.2744 7.33377 55.7217 9.21514 56.5702 11.8186L61.8693 6.5195C59.4519 2.73328 55.213 0.222656 50.3878 0.222656C46.7776 0.222656 43.3153 1.65679 40.7625 4.20957L18.2092 26.763C16.99 27.9822 15.3364 28.6671 13.6122 28.6671C10.0217 28.6671 7.11111 25.7565 7.11111 22.166C7.11111 20.4418 7.79604 18.7882 9.01523 17.569L17.3464 9.23789C18.5656 8.0187 20.2191 7.33377 21.9433 7.33377C24.8301 7.33377 27.2773 9.21523 28.1257 11.8188L33.4249 6.51963C31.0075 2.73335 26.7687 0.222656 21.9433 0.222656Z" fill="#2FBDFF"/>
</svg>
