<svg width="63" height="36" viewBox="0 0 63 36" fill="none" xmlns="http://www.w3.org/2000/svg">
<path d="M16.8557 26.763C15.6365 27.9822 13.9829 28.6671 12.2587 28.6671C9.37243 28.6671 6.92538 26.7862 6.07667 24.1832L0.77771 29.4822C3.19525 33.2679 7.43383 35.7782 12.2587 35.7782C15.8689 35.7782 19.3312 34.344 21.884 31.7913L44.4373 9.23789C45.6565 8.0187 47.3101 7.33377 49.0343 7.33377C52.6248 7.33377 55.5354 10.2444 55.5354 13.8349C55.5354 15.5591 54.8505 17.2126 53.6313 18.4318L45.3001 26.763C44.0809 27.9822 42.4274 28.6671 40.7032 28.6671C37.8166 28.6671 35.3695 26.7859 34.5209 24.1826L29.2219 29.4817C31.6393 33.2678 35.878 35.7782 40.7032 35.7782C44.3134 35.7782 47.7756 34.344 50.3284 31.7913L58.6595 23.4601C61.2123 20.9073 62.6465 17.4451 62.6465 13.8349C62.6465 6.31705 56.5522 0.222656 49.0343 0.222656C45.4241 0.222656 41.9618 1.65679 39.4091 4.20957L16.8557 26.763Z" fill="#2FBDFF"/>
</svg>
